# xmcd
#
# Track frame offsets:
# 150
# 6564
# 27177
# 45124
# 58535
# 76341
# 81208
# 97889
# 114079
# 119381
# 131905
# 148944
# 159823
# 176722
# 186876
# 207009
# 216878
# 238358
# 255182
# 268800
# 278211
#
# Disc length: 3773 seconds
#
# Revision: 0
# Processed by: cddbd v1.5.2PL0 Copyright (c) Steve Scherf et al.
# Submitted via: Audion 3.0.2 (http://www.panic.com/audion/)
#
DISCID=210ebb15
DTITLE=Various Artist - God Bless Italics
DYEAR=1900
DGENRE=
TTITLE0=Main Title - Jon Brion
TTITLE1=Pagan Angel and a Borrowed Car - Iron and Wine
TTITLE2=Hendrix with a KO - Caribou
TTITLE3=Computer Song - Jim Noir
TTITLE4=All I Have - Tiger Lou
TTITLE5=La Derniére Minute - Carla Bruni
TTITLE6=Just One Girl - The Robot Ate Me
TTITLE7=Slope Song - The Essex Green
TTITLE8=Chime Out - Nightmares on Wax 
TTITLE9=Winter Wooskie - Belle and Sebastian
TTITLE10=Festival - Dungen
TTITLE11=Your Love is Like Las Vegas - The Thrills
TTITLE12=Tokyo - The Books
TTITLE13=Prairie Fire that Wanders About - Sufjan Stevens
TTITLE14=Cardinal Points - The Essex Green
TTITLE15=Ripchord - Rilo Kiley
TTITLE16=Rock and Roll - The Velvet Underground
TTITLE17=The Underground - Spoon
TTITLE18=Grass - Animal Collective
TTITLE19=Go Find Your Saint - Frank Black
TTITLE20=Phone Call - Jon Brion
EXTD=
EXTT0=
EXTT1=
EXTT2=
EXTT3=
EXTT4=
EXTT5=
EXTT6=
EXTT7=
EXTT8=
EXTT9=
EXTT10=
EXTT11=
EXTT12=
EXTT13=
EXTT14=
EXTT15=
EXTT16=
EXTT17=
EXTT18=
EXTT19=
EXTT20=
PLAYORDER=
